<svg width="473.806" height="473.806" xmlns="http://www.w3.org/2000/svg" xml:space="preserve" version="1.1" fill="#000000">

 <g>
  <title>Layer 1</title>
  <ellipse stroke="#000" stroke-width="0" ry="129.81674" rx="129.81674" id="svg_6" cy="236.90299" cx="236.90301" fill="#04534c"/>
  <ellipse stroke="#000" opacity="0.35" stroke-width="0" ry="184.78488" rx="184.78488" id="svg_7" cy="236.90299" cx="236.903" fill="#04534c"/>
  <ellipse stroke="#000" opacity="0.15" stroke-width="0" ry="235.50001" rx="235.50001" id="svg_8" cy="236.903" cx="236.90299" fill="#04534c"/>
  <g stroke="null" stroke-width="0" id="svg_1">
   <g stroke="null" id="svg_2">
    <path stroke="null" fill="#ffffff" id="svg_3" d="m280.15249,254.70015c-3.04988,-3.17565 -6.72861,-4.87352 -10.62743,-4.87352c-3.86738,0 -7.57754,1.66643 -10.7532,4.84208l-9.9357,9.90426c-0.81749,-0.44019 -1.63499,-0.84894 -2.42104,-1.25768c-1.13192,-0.56596 -2.20095,-1.10047 -3.11277,-1.66643c-9.30686,-5.91111 -17.76478,-13.61443 -25.87684,-23.58157c-3.93026,-4.96785 -6.5714,-9.14965 -8.48937,-13.39433c2.57825,-2.35816 4.96785,-4.81064 7.29457,-7.1688c0.88038,-0.88038 1.76076,-1.7922 2.64114,-2.67258c6.60284,-6.60284 6.60284,-15.15509 0,-21.75793l-8.58369,-8.58369c-0.9747,-0.9747 -1.98085,-1.98085 -2.92411,-2.987c-1.88653,-1.94941 -3.86738,-3.9617 -5.91111,-5.84823c-3.04988,-3.01844 -6.69717,-4.62199 -10.5331,-4.62199s-7.5461,1.60355 -10.69031,4.62199c-0.03144,0.03144 -0.03144,0.03144 -0.06288,0.06288l-10.69031,10.78464c-4.02459,4.02459 -6.31986,8.92955 -6.82293,14.62057c-0.75461,9.18109 1.94941,17.73334 4.02459,23.33003c5.09362,13.7402 12.70261,26.47424 24.0532,40.12011c13.77164,16.44422 30.34162,29.4298 49.26976,38.57945c7.23168,3.42719 16.8844,7.48322 27.66904,8.17494c0.66028,0.03144 1.35201,0.06288 1.98085,0.06288c7.26312,0 13.36289,-2.60969 18.14209,-7.79764c0.03144,-0.06288 0.09433,-0.09433 0.12577,-0.15721c1.63499,-1.98085 3.52151,-3.77305 5.50237,-5.69102c1.35201,-1.28913 2.73546,-2.64114 4.08747,-4.05603c3.11277,-3.23854 4.74776,-7.01159 4.74776,-10.87896c0,-3.89882 -1.66643,-7.64043 -4.84208,-10.78464l-17.26171,-17.32459zm11.25627,33.10853c-0.03144,0 -0.03144,0.03144 0,0c-1.22624,1.32057 -2.48393,2.51537 -3.83594,3.83594c-2.04374,1.94941 -4.11891,3.99315 -6.06832,6.28842c-3.17565,3.39575 -6.91726,4.99929 -11.82223,4.99929c-0.47163,0 -0.9747,0 -1.44634,-0.03144c-9.3383,-0.5974 -18.01632,-4.24468 -24.52483,-7.35745c-17.79623,-8.61513 -33.42295,-20.84611 -46.40853,-36.34706c-10.72175,-12.9227 -17.89055,-24.8707 -22.63831,-37.69907c-2.92411,-7.82908 -3.99315,-13.92885 -3.52151,-19.68275c0.31442,-3.67873 1.72932,-6.72861 4.33901,-9.3383l10.72175,-10.72175c1.54066,-1.44634 3.17565,-2.23239 4.7792,-2.23239c1.98085,0 3.5844,1.1948 4.59055,2.20095c0.03144,0.03144 0.06288,0.06288 0.09433,0.09433c1.91797,1.7922 3.74161,3.64728 5.65958,5.62813c0.9747,1.00615 1.98085,2.01229 2.987,3.04988l8.58369,8.58369c3.33286,3.33286 3.33286,6.41419 0,9.74705c-0.91182,0.91182 -1.7922,1.82364 -2.70402,2.70402c-2.64114,2.70402 -5.1565,5.21939 -7.89197,7.67187c-0.06288,0.06288 -0.12577,0.09433 -0.15721,0.15721c-2.70402,2.70402 -2.20095,5.34516 -1.63499,7.13736c0.03144,0.09433 0.06288,0.18865 0.09433,0.28298c2.23239,5.40804 5.3766,10.50166 10.1558,16.56998l0.03144,0.03144c8.67802,10.69031 17.82767,19.02247 27.92058,25.40521c1.28913,0.81749 2.60969,1.47778 3.86738,2.10662c1.13192,0.56596 2.20095,1.10047 3.11277,1.66643c0.12577,0.06288 0.25154,0.15721 0.37731,0.22009c1.06903,0.53452 2.07518,0.78605 3.11277,0.78605c2.60969,0 4.24468,-1.63499 4.7792,-2.1695l10.7532,-10.7532c1.06903,-1.06903 2.7669,-2.35816 4.74776,-2.35816c1.94941,0 3.55296,1.22624 4.52766,2.29527c0.03144,0.03144 0.03144,0.03144 0.06288,0.06288l17.32459,17.32459c3.23854,3.20709 3.23854,6.50851 0.03144,9.84138z"/>
    <path stroke="null" fill="#ffffff" id="svg_4" d="m242.92505,197.85284c8.23783,1.38345 15.72105,5.28227 21.69505,11.25627s9.84138,13.45722 11.25627,21.69505c0.34586,2.07518 2.13806,3.52151 4.1818,3.52151c0.25154,0 0.47163,-0.03144 0.72317,-0.06288c2.32672,-0.37731 3.86738,-2.57825 3.49007,-4.90497c-1.69787,-9.96714 -6.41419,-19.05391 -13.61443,-26.25415s-16.28701,-11.91655 -26.25415,-13.61443c-2.32672,-0.37731 -4.49622,1.16336 -4.90497,3.45863s1.10047,4.52766 3.42719,4.90497z"/>
    <path stroke="null" fill="#ffffff" id="svg_5" d="m311.21728,228.13157c-2.79835,-16.41277 -10.5331,-31.34777 -22.41821,-43.23288s-26.82011,-19.61987 -43.23288,-22.41821c-2.29527,-0.40875 -4.46478,1.16336 -4.87352,3.45863c-0.37731,2.32672 1.16336,4.49622 3.49007,4.90497c14.65202,2.48393 28.01491,9.43263 38.64233,20.02861c10.62743,10.62743 17.54469,23.99032 20.02861,38.64233c0.34586,2.07518 2.13806,3.52151 4.1818,3.52151c0.25154,0 0.47163,-0.03144 0.72317,-0.06288c2.29527,-0.34586 3.86738,-2.54681 3.45863,-4.84208z"/>
   </g>
  </g>
 </g>
</svg>